<svg xmlns="http://www.w3.org/2000/svg" width="1024" height="536" viewBox="0 0 1024 536" version="1.1">
	<path d="M 489.324 38.383 C 480.338 41.314, 474.936 46.376, 470.775 55.767 C 467.294 63.623, 467.765 70.768, 472.500 81.944 C 477.224 93.094, 481.642 98.293, 487.800 99.948 L 492.100 101.104 486.911 105.802 C 480.711 111.415, 479.307 112.308, 477.972 111.482 C 477.415 111.138, 475.414 107.601, 473.526 103.621 C 469.039 94.167, 463.174 87.622, 455.898 83.949 C 449.475 80.706, 448.244 80.527, 442.791 82.041 C 438.639 83.195, 418.834 96.979, 412.167 103.356 C 403.935 111.230, 401.329 120.742, 404.457 131.499 C 406.939 140.037, 427.035 179.066, 431.475 183.973 C 435.358 188.263, 443.175 185.566, 451.469 177.074 L 456.438 171.986 459.207 182.603 C 463.800 200.214, 472.274 214.657, 481.428 220.477 C 497.968 230.993, 517.252 230.590, 527.996 219.504 L 531.219 216.179 534.358 219.755 C 536.084 221.721, 539.747 224.316, 542.498 225.521 C 557.009 231.877, 573.029 228.038, 585.784 215.147 C 594.617 206.221, 600.643 193.283, 603.073 178.026 C 603.644 174.437, 604.473 171.136, 604.914 170.692 C 605.355 170.247, 607.693 172.272, 610.108 175.191 C 615.999 182.311, 617.816 183.773, 622.362 185.052 C 625.829 186.026, 626.474 185.904, 628.655 183.854 C 629.992 182.598, 633.702 176.605, 636.900 170.535 C 640.098 164.466, 644.991 155.382, 647.774 150.350 C 657.816 132.192, 660.286 120.353, 655.914 111.323 C 653.420 106.171, 640.289 93.622, 630.595 87.127 C 623.849 82.607, 623.509 82.500, 615.864 82.500 C 608.369 82.500, 607.901 82.637, 604.788 85.750 C 603.001 87.537, 602.092 89, 602.769 89 C 603.600 89, 604.003 90.870, 604.010 94.750 C 604.024 103.526, 606.831 126.754, 608.691 133.496 C 609.602 136.798, 611.667 142.650, 613.279 146.500 C 618.989 160.135, 621.094 166.391, 620.799 168.845 C 620.508 171.267, 620.386 171.219, 615.972 166.915 C 612.419 163.452, 610.337 159.913, 606.309 150.500 C 603.485 143.900, 600.465 136.025, 599.597 133 C 597.742 126.532, 596.056 111.593, 595.984 101 L 595.933 93.500 593.960 95.869 C 592.875 97.172, 591.308 100.547, 590.478 103.369 C 588.075 111.543, 587.942 111.606, 582.408 107.199 C 579.708 105.049, 576.708 102.397, 575.741 101.306 C 574.029 99.376, 574.087 99.291, 577.877 98.155 C 584.278 96.237, 593.229 82.016, 594.516 71.719 C 596.302 57.424, 588.878 43.343, 577.264 38.998 C 557.208 31.494, 538.493 46.507, 536.185 71.952 L 535.500 79.500 531.500 79.500 L 527.500 79.500 526.997 70.500 C 526.587 63.159, 525.953 60.432, 523.561 55.706 C 516.687 42.125, 501.466 34.423, 489.324 38.383 M 459.085 104.772 C 455.904 133.599, 450.317 151.796, 440.903 164 C 437.839 167.972, 436.501 171.574, 437.794 172.372 C 438.275 172.670, 440.434 172.039, 442.592 170.972 C 448.386 168.105, 456.360 155.787, 460.582 143.183 C 469.381 116.912, 470.372 94.881, 462.782 94.253 C 460.307 94.048, 460.251 94.207, 459.085 104.772 M 523 100.942 C 518.397 102.360, 498.541 111.276, 495 113.516 C 489.155 117.212, 482.002 125.718, 478.798 132.785 C 471.819 148.176, 468.520 169.674, 471.406 180.941 C 475.054 195.179, 483.211 207.032, 493.152 212.537 C 497.763 215.092, 499.533 215.497, 506 215.477 C 517.922 215.440, 524.523 210.978, 525.706 202.155 C 526.214 198.367, 526.051 198.101, 520.866 194.262 C 513.864 189.079, 507.471 182.063, 505.542 177.445 C 504.694 175.416, 504 171.554, 504 168.863 C 504 164.706, 504.504 163.420, 507.355 160.310 C 510.352 157.039, 511.339 156.604, 516.605 156.234 C 521.962 155.857, 522.893 156.106, 526.813 158.962 L 531.127 162.104 535.735 159.052 C 539.314 156.682, 541.448 156, 545.289 156 C 549.701 156, 550.654 156.419, 554.118 159.882 C 557.569 163.333, 557.999 164.306, 557.991 168.632 C 557.974 177.257, 554.187 182.290, 537.681 195.628 C 535.568 197.336, 536.044 201.129, 539.138 207.241 C 543.282 215.428, 556.315 218.394, 566.766 213.529 C 577.853 208.367, 584.242 200.736, 589.213 186.717 C 595.099 170.116, 594.905 164.002, 587.796 142 C 581.513 122.556, 579.976 120.287, 568.344 113.280 C 552.155 103.527, 532.217 98.103, 523 100.942 M 316 101.709 C 311.732 103.279, 307.517 109.918, 306.415 116.806 C 305.119 124.914, 311.246 135, 317.469 135 C 325.631 135, 332.415 122.236, 329.991 111.441 C 328.446 104.564, 321.458 99.703, 316 101.709 M 734.751 104.750 C 729.542 110.210, 728.872 115.272, 732.095 124.816 C 734.454 131.800, 736.826 134, 742 134 C 746.548 134, 749.501 131.899, 752.092 126.820 C 755.468 120.203, 753.254 109.920, 747.257 104.363 C 743.606 100.979, 738.188 101.147, 734.751 104.750 M 282.750 104.080 C 279.687 105.864, 278 110.590, 278 117.385 C 278 124.939, 279.121 128.445, 282.751 132.250 C 286.637 136.324, 291.860 136.072, 296.765 131.574 C 300.385 128.255, 300.499 127.938, 300.479 121.324 C 300.447 110.446, 295.044 102.946, 287.300 103.030 C 285.760 103.047, 283.712 103.519, 282.750 104.080 M 763.992 106.773 C 758.256 112.509, 756.358 121.849, 759.617 128.300 C 762.474 133.954, 765.004 136, 769.140 136 C 782.249 136, 787.901 112.046, 776.460 104.975 C 771.579 101.959, 768.339 102.425, 763.992 106.773 M 337.118 126.630 C 335.838 127.526, 333.488 130.314, 331.896 132.826 C 323.589 145.924, 334.501 159.995, 345.355 150.180 C 351.500 144.623, 353.250 132.159, 348.545 127.455 C 345.643 124.552, 340.603 124.189, 337.118 126.630 M 712.607 126.882 C 708.512 131.407, 708.285 139.718, 712.056 147.109 C 716.163 155.159, 722.904 157.250, 728.077 152.077 C 730.601 149.553, 731 148.401, 731 143.642 C 731 136.605, 729.763 133.407, 725.238 128.750 C 722.342 125.770, 720.846 125, 717.952 125 C 715.656 125, 713.680 125.696, 712.607 126.882 M 262.500 129.195 C 259.034 131.205, 258.064 133.338, 258.042 139 C 258.012 146.264, 261.636 154.243, 265.985 156.492 C 268.551 157.819, 269.749 157.908, 272.558 156.981 C 276.511 155.676, 278.624 153.075, 280.066 147.738 C 280.898 144.661, 280.735 143.206, 279.168 139.738 C 275.499 131.622, 267.280 126.423, 262.500 129.195 M 489.834 130.750 C 486.372 134.497, 485.750 136.713, 487.053 140.660 C 490.083 149.841, 503 146.876, 503 137 C 503 128.904, 495.033 125.122, 489.834 130.750 M 561.460 131.042 C 559.265 133.333, 558.545 135.041, 558.545 137.962 C 558.545 143.257, 561.165 146, 566.221 146 C 571.458 146, 573.622 144.676, 574.947 140.660 C 576.250 136.713, 575.628 134.497, 572.166 130.750 C 568.770 127.074, 565.167 127.172, 561.460 131.042 M 786.261 132.441 C 779.489 140.134, 778.454 149.182, 783.742 154.469 C 785.576 156.304, 787.336 157, 790.136 157 C 794.728 157, 796.884 155.135, 800.466 148.067 C 805.832 137.478, 802.749 128, 793.939 128 C 790.733 128, 789.586 128.663, 786.261 132.441 M 296.563 140.266 C 293.718 141.880, 290.454 145.693, 284.806 154 C 273.837 170.131, 272.954 174.888, 279.681 181.615 C 283.585 185.519, 287.006 185.914, 296 183.500 C 303.028 181.613, 309.396 181.610, 315.591 183.489 C 323.258 185.815, 327.455 185.458, 331.138 182.168 C 335.396 178.363, 336.299 170.399, 333.150 164.425 C 330.118 158.673, 317.041 142.925, 313.102 140.281 C 308.599 137.258, 301.876 137.252, 296.563 140.266 M 746.734 140.228 C 744.409 141.576, 740.847 145.489, 737.424 150.456 C 734.375 154.880, 730.332 160.688, 728.440 163.363 C 724.346 169.150, 723.874 174.641, 727.026 179.810 C 730.504 185.516, 733.838 186.193, 746.272 183.723 L 756.970 181.597 764.090 183.890 C 773.060 186.779, 776.720 186.222, 781.032 181.310 C 783.979 177.955, 784.186 177.251, 783.801 171.927 C 783.513 167.946, 782.632 165.091, 780.942 162.664 C 765.375 140.305, 762.974 137.988, 755.406 138.023 C 752.214 138.038, 749.184 138.809, 746.734 140.228 M 361 148.954 L 361 154 366.750 153.985 C 374.172 153.965, 375.216 153.242, 374.819 148.398 L 374.500 144.500 367.750 144.204 L 361 143.909 361 148.954 M 687 144.838 C 685.128 145.392, 684.422 146.369, 684.192 148.723 C 683.786 152.854, 686.291 154.192, 693.697 153.799 C 698.904 153.523, 699.415 153.279, 700.287 150.652 C 701.006 148.485, 700.870 147.442, 699.719 146.291 C 697.994 144.565, 690.722 143.735, 687 144.838 M 362.424 237.917 C 362.191 238.146, 362 240.958, 362 244.167 L 362 250 369 250 L 376 250 376.002 253.250 C 376.007 259.602, 378.041 294.537, 378.535 296.750 C 378.974 298.715, 379.669 299, 384.019 299 L 389 299 389 274 L 389 249 397 249 L 405 249 405 244.582 C 405 242.152, 405.256 239.497, 405.569 238.682 C 406.061 237.398, 403.243 237.220, 384.492 237.350 C 372.588 237.433, 362.657 237.688, 362.424 237.917 M 525.007 237.643 C 525.041 241.743, 538.545 287.884, 542.013 295.750 L 543.888 300 549.694 299.996 L 555.500 299.991 558.926 288.246 C 565.546 265.549, 572.773 241.482, 573.490 239.750 C 574.140 238.180, 573.485 238, 567.107 238 C 561.008 238, 559.999 238.248, 559.993 239.750 C 559.986 241.436, 555.225 261.587, 551.219 276.885 C 550.156 280.948, 549.013 283.830, 548.680 283.291 C 548.347 282.753, 546.922 276.954, 545.514 270.406 C 544.105 263.858, 541.838 254.940, 540.476 250.589 C 539.114 246.238, 538 241.625, 538 240.339 C 538 238.204, 537.571 238, 533.082 238 C 530.377 238, 527.452 237.727, 526.582 237.393 C 525.712 237.059, 525.003 237.172, 525.007 237.643 M 212.366 268.714 L 212.866 299.500 220.183 299.169 C 246.838 297.965, 257.216 288.571, 255.737 266.988 C 255.092 257.590, 252.715 251.900, 247.098 246.312 C 241.769 241.010, 236.546 239.350, 222.683 238.551 L 211.866 237.928 212.366 268.714 M 277.220 240.578 C 271.601 243.378, 268.101 246.974, 264.756 253.384 C 261.774 259.099, 261.039 275.591, 263.444 282.831 C 265.301 288.423, 271.643 296.247, 276.248 298.628 C 284.304 302.794, 297.585 298.477, 303.591 289.741 C 307.900 283.472, 309.427 275.876, 308.551 265.074 C 307.466 251.701, 303.730 245.038, 294.832 240.603 C 288.246 237.322, 283.767 237.315, 277.220 240.578 M 315.146 268.384 L 315.497 299 320.167 299 C 322.735 299, 325.548 299.273, 326.418 299.607 C 327.787 300.132, 328.002 299.019, 328.014 291.357 C 328.034 278.081, 327.877 278.337, 336.334 277.782 C 352.269 276.737, 362.006 267.038, 359.026 255.179 C 357.431 248.834, 353.887 244.493, 347.688 241.290 C 342.962 238.849, 341.266 238.573, 328.647 238.189 L 314.795 237.767 315.146 268.384 M 439.778 268.391 L 440.057 299 457.528 299 L 475 299 475 296.625 C 475 295.319, 474.719 292.844, 474.375 291.125 L 473.750 288 466 288 C 461.737 288, 456.914 287.733, 455.281 287.406 L 452.312 286.812 451.693 263.276 C 451.353 250.332, 450.922 239.588, 450.736 239.402 C 450.550 239.216, 447.946 238.776, 444.949 238.423 L 439.500 237.782 439.778 268.391 M 494 239.526 C 487.991 241.406, 482.671 245.981, 479.944 251.615 C 475.355 261.095, 476.606 283.425, 482.164 291.231 C 485.632 296.100, 492.660 300.002, 497.946 299.990 C 508.007 299.969, 517.932 292.207, 519.954 282.779 C 521.254 276.715, 521.323 258.612, 520.062 254.215 C 518.655 249.310, 513.122 242.937, 508.552 240.958 C 502.452 238.316, 498.964 237.973, 494 239.526 M 577.794 238.750 C 577.616 239.162, 577.702 252.775, 577.985 269 L 578.500 298.500 595 298.354 L 611.500 298.208 611.500 292.764 L 611.500 287.319 601 287.410 L 590.500 287.500 590.205 280.790 L 589.910 274.079 598.705 273.790 L 607.500 273.500 607.805 268.750 L 608.110 264 598.555 264 L 589 264 589 257.032 L 589 250.063 600.750 249.782 L 612.500 249.500 612.800 243.750 L 613.100 238 595.609 238 C 585.989 238, 577.972 238.338, 577.794 238.750 M 646.607 239.582 C 645.810 241.658, 645.837 266.782, 646.656 284.669 L 647.304 298.838 653.088 299.169 L 658.873 299.500 658.686 289 L 658.500 278.500 661.123 278.196 C 663.447 277.926, 664.274 278.791, 668.362 285.765 C 670.901 290.095, 673.437 294.957, 673.998 296.569 C 674.993 299.429, 675.162 299.492, 681.009 299.161 C 684.482 298.965, 687 298.361, 687 297.726 C 687 297.123, 684.460 292.182, 681.355 286.746 L 675.710 276.863 679.479 273.756 C 684.305 269.779, 686.001 265.621, 685.996 257.782 C 685.992 250.611, 684.144 246.721, 678.835 242.714 C 674.098 239.138, 668.960 238.012, 657.357 238.006 C 649.027 238.001, 647.105 238.283, 646.607 239.582 M 694 260.849 C 694 273.416, 694.292 287.155, 694.649 291.379 L 695.299 299.060 712.149 298.950 L 729 298.840 729 293.420 L 729 288 718 288 L 707 288 707 281.144 L 707 274.288 715.207 273.603 C 719.721 273.227, 723.513 272.820, 723.634 272.699 C 723.755 272.578, 723.999 270.684, 724.177 268.490 L 724.500 264.500 715.250 264.212 L 706 263.925 706 256.962 L 706 250 714.250 249.800 C 718.788 249.691, 723.737 249.644, 725.250 249.698 C 727.840 249.789, 728 249.544, 728 245.479 C 728 243.106, 728.273 240.452, 728.607 239.582 C 729.146 238.176, 727.251 238, 711.607 238 L 694 238 694 260.849 M 734.701 267.250 C 734.948 283.337, 735.336 297.085, 735.563 297.800 C 735.854 298.717, 737.674 299.012, 741.738 298.800 L 747.500 298.500 747.151 288.750 L 746.802 279 751.458 279 C 761.789 279, 771.070 274.073, 773.982 267.042 C 776.043 262.067, 774.883 252.846, 771.664 248.627 C 765.325 240.316, 759.077 238, 742.989 238 L 734.251 238 734.701 267.250 M 780.014 266.486 C 780.021 281.893, 780.299 295.512, 780.630 296.750 C 781.224 298.966, 781.476 299, 797.500 299 C 815.693 299, 814.952 299.328, 814.986 291.250 C 814.999 288.144, 814.830 288, 811.151 288 C 809.034 288, 803.859 287.709, 799.651 287.353 L 792 286.707 792 280.353 L 792 274 800.500 274 L 809 274 809 269 L 809 264 800 264 L 791 264 791 257.559 C 791 254.016, 791.410 250.865, 791.911 250.555 C 792.412 250.245, 797.475 249.706, 803.161 249.356 L 813.500 248.721 813.500 243.531 L 813.500 238.341 796.750 238.406 L 780 238.471 780.014 266.486 M 828.578 255.750 C 825.992 265.512, 822.329 278.627, 820.438 284.893 C 818.547 291.159, 817 296.897, 817 297.643 C 817 298.634, 818.611 299, 822.981 299 C 828.688 299, 828.990 298.874, 829.585 296.250 C 831.758 286.657, 830.797 287.582, 839.481 286.716 C 848.449 285.821, 848.328 285.741, 850.134 293.750 L 851.318 299 858.266 299 C 864.472 299, 865.142 298.813, 864.542 297.250 C 859.614 284.415, 854.159 268.041, 850.330 254.585 L 845.610 238 839.445 238 L 833.280 238 828.578 255.750 M 860 244.238 L 860 250 866.846 250 L 873.691 250 874.342 262.750 C 874.699 269.762, 874.994 281.012, 874.996 287.750 L 875 300 881 300 L 887 300 886.998 274.750 L 886.996 249.500 893.644 249.842 L 900.291 250.184 899.657 246.342 C 899.308 244.229, 899.017 241.595, 899.011 240.488 C 899 238.541, 898.368 238.476, 879.500 238.476 L 860 238.476 860 244.238 M 904.663 238.706 C 902.975 239.142, 902.886 239.961, 903.559 248.840 C 903.961 254.153, 904.563 263.225, 904.895 269 C 905.491 279.338, 905.540 279.505, 908.059 279.798 C 909.466 279.962, 911.829 279.635, 913.309 279.073 L 916 278.050 916 258.025 L 916 238 911.250 238.116 C 908.638 238.180, 905.674 238.445, 904.663 238.706 M 171.156 258.253 C 168.216 268.839, 164.264 282.173, 162.373 287.884 C 160.482 293.595, 159.062 298.379, 159.217 298.514 C 159.373 298.649, 162.298 298.954, 165.717 299.192 L 171.934 299.623 172.542 295.061 C 172.876 292.553, 173.313 289.974, 173.512 289.331 C 173.947 287.930, 188.915 287.033, 190.695 288.302 C 191.352 288.770, 192.378 291.502, 192.974 294.372 L 194.057 299.591 200.778 299.180 C 204.475 298.953, 207.621 298.662, 207.768 298.532 C 207.916 298.402, 206.485 294.277, 204.587 289.364 C 200.823 279.618, 195.626 262.761, 191.911 248.250 L 189.542 239 183.021 239.003 L 176.500 239.006 171.156 258.253 M 282.034 250.752 C 276.758 253.413, 274.824 257.683, 274.238 267.965 C 273.628 278.667, 274.131 280.941, 278.118 285.482 C 282.081 289.996, 287.243 290.349, 291.905 286.426 C 296.078 282.915, 297.270 278.143, 296.853 266.612 L 296.500 256.854 292.289 252.927 C 287.512 248.473, 286.835 248.329, 282.034 250.752 M 497 249.922 C 490.976 251.385, 486.794 269.936, 490.375 279.311 C 491.288 281.703, 493.336 284.906, 494.926 286.429 C 497.298 288.702, 498.370 289.078, 500.895 288.523 C 504.027 287.835, 507.153 284.382, 508.465 280.159 C 508.865 278.871, 509.167 273.576, 509.135 268.391 C 509.069 257.701, 507.500 253.082, 503.205 250.942 C 499.678 249.185, 499.892 249.220, 497 249.922 M 749.250 249.813 L 746 250.127 746 259.456 C 746 270.017, 746.308 270.433, 753.329 269.362 C 759 268.497, 760.702 267.478, 762.599 263.808 C 763.918 261.258, 764.014 259.991, 763.118 257 C 761.301 250.936, 757.585 249.010, 749.250 249.813 M 223.014 266.750 C 223.031 288.590, 222.962 288.354, 229.221 287.753 C 238.308 286.880, 243.018 281.482, 243.762 271.088 C 244.728 257.578, 239.160 250, 228.268 250 L 223 250 223.014 266.750 M 328 259 L 328 268 333.465 268 C 338.152 268, 339.434 267.558, 342.465 264.896 C 345.976 261.814, 346.903 258.518, 345.379 254.545 C 344.358 251.884, 339.453 250, 333.550 250 L 328 250 328 259 M 657 259 L 657 268 662.918 268 C 670.309 268, 671.709 267.463, 673.537 263.928 C 675.587 259.964, 675.358 255.725, 672.927 252.635 C 671.045 250.241, 670.220 250, 663.927 250 L 657 250 657 259 M 180.137 266.038 C 177.220 279.741, 177.027 279, 183.500 279 C 189.813 279, 189.875 278.864, 187.146 270.907 C 186.126 267.933, 184.973 263.363, 184.584 260.750 C 184.196 258.137, 183.517 256, 183.076 256 C 182.635 256, 181.313 260.517, 180.137 266.038 M 837.669 265.538 C 836.201 270.735, 835 275.439, 835 275.993 C 835 276.547, 837.280 277, 840.067 277 C 844.423 277, 845.063 276.754, 844.620 275.250 C 844.338 274.288, 843.580 269.782, 842.936 265.237 C 842.293 260.692, 841.445 256.775, 841.052 256.532 C 840.659 256.289, 839.137 260.342, 837.669 265.538 M 618.250 281.706 C 616.131 282.114, 616 282.625, 616 290.498 C 616 296.764, 616.394 299.251, 617.571 300.429 C 621.895 304.752, 628.657 298.673, 630.510 288.797 C 631.685 282.532, 627.257 279.971, 618.250 281.706 M 405.571 283.571 C 403.552 285.591, 403.337 300.711, 405.289 303.381 C 407.358 306.210, 411.488 304.473, 415.359 299.143 C 419.642 293.247, 421.493 287.790, 420.097 285.181 C 418.363 281.942, 408.315 280.828, 405.571 283.571 M 905.571 285.571 C 903.332 287.811, 903.494 295.233, 905.829 297.345 C 908.711 299.953, 914.967 298.996, 917.235 295.600 C 918.502 293.702, 918.066 288.540, 916.443 286.223 C 914.551 283.521, 908.013 283.129, 905.571 285.571 M 725 333.105 C 688.975 333.438, 656.688 333.776, 653.250 333.855 L 647 334 647 338.504 L 647 343.008 774.750 342.754 L 902.500 342.500 902.824 339.105 C 903.006 337.202, 902.619 335.383, 901.944 334.966 C 898.853 333.055, 820.072 332.227, 725 333.105 M 185.500 334 L 162.500 334.500 162.195 338.165 C 161.947 341.133, 162.280 341.954, 163.942 342.482 C 165.071 342.840, 221.683 343.216, 289.747 343.317 L 413.500 343.500 413.500 339 L 413.500 334.500 395 333.811 C 374.795 333.059, 222.465 333.196, 185.500 334 M 505.383 365.583 C 495.857 370.283, 499.224 388.812, 511.210 397.655 C 515.079 400.509, 518.466 400.623, 522.701 398.040 C 526.537 395.702, 528.817 391.612, 529.642 385.592 C 530.998 375.701, 520.593 363.914, 510.601 364.023 C 509.445 364.035, 507.097 364.738, 505.383 365.583 M 543.869 365.950 C 541.872 367.037, 538.834 370.045, 537.119 372.634 C 531.668 380.864, 533.064 391.337, 540.480 397.848 C 543.147 400.190, 544.882 400.998, 546.379 400.597 C 547.546 400.283, 549.073 400.021, 549.772 400.014 C 551.885 399.991, 560.026 391.865, 562.264 387.545 C 563.776 384.628, 564.368 381.612, 564.386 376.729 C 564.409 370.712, 564.115 369.661, 561.750 367.296 C 558.141 363.686, 549.259 363.018, 543.869 365.950 M 570.948 390.096 C 567.899 391.217, 561.534 401.729, 560.569 407.235 C 559.190 415.107, 564.552 426.004, 569.801 425.996 C 574.011 425.990, 578.592 422.584, 582.691 416.410 C 585.903 411.572, 586.501 409.789, 586.810 404.125 C 587.271 395.660, 585.979 392.307, 581.538 390.452 C 577.630 388.819, 574.691 388.720, 570.948 390.096 M 480.831 391.530 C 472.174 396.231, 477.140 417.840, 488.200 423.595 C 489.686 424.368, 491.762 425, 492.815 425 C 495.819 425, 499.840 421.248, 502.533 415.935 C 506.724 407.665, 505.491 401.374, 498.187 393.750 C 494.866 390.284, 494.174 390.003, 489.047 390.040 C 485.996 390.062, 482.299 390.732, 480.831 391.530 M 525.279 405.653 C 524.042 406.154, 507.820 425.237, 502.551 432.390 C 498.562 437.804, 498.504 443.349, 502.382 448.434 C 506.987 454.471, 510.069 455.277, 530.500 455.780 C 551.700 456.302, 555.680 455.555, 561.214 450.022 C 566.258 444.977, 566.459 439.707, 561.884 432.446 C 556.701 424.219, 544.034 408.992, 540.665 406.937 C 537.650 405.099, 528.525 404.337, 525.279 405.653" stroke="none" fill="#000000" fill-rule="evenodd"/>
</svg>